# xmcd
#
# Track frame offsets:
#	150
#	10518
#	18943
#	31380
#	45385
#	56119
#	67424
#	77524
#	88641
#	99048
#	111402
#	121244
#	131219
#	144029
#
# Disc length: 2087 seconds
#
# Revision: 8
# Processed by: cddbd v1.5.2PL0 Copyright (c) Steve Scherf et al.
# Submitted via: EasyCDDAExtractor 12.0.1.1
#
DISCID=ad08250e
DTITLE=Various Artist - Do You Remember Vol. 3 Of 10
DYEAR=1960
DGENRE=Oldies
TTITLE0=Connie Francis - Who´s Sorry Now - 1958
TTITLE1=Ricky Nelson - Stood Up - 1957
TTITLE2=Brenda Lee - Jambalaya - 1956
TTITLE3=Bobby Darin - MackThe Knife - 1959
TTITLE4=The Everly Brothers - Bye Bye Love - 1957
TTITLE5=Johnny Tillotson - Poetry In Motion - 1960
TTITLE6=Carl Perkins - Blue Suede Shoes - 1956
TTITLE7=Connie Francis - My Happiness - 1958
TTITLE8=Ricky Nelson - Hello, Mary Lou - 1961
TTITLE9=Brenda Lee - All Alone Am I - 1962
TTITLE10=Bobby Darin - Queen Of The Hop - 1958
TTITLE11=The Everly Brothers - Claudette - 1958
TTITLE12=Johnny Tillotson - It Keep Right On A´ Hurting - 1962
TTITLE13=Carl Perkins - Boppin´ The Blues - 1956
EXTD=
EXTT0=Connie Francis
EXTT1=Ricky Nelson
EXTT2=Brenda Lee
EXTT3=Bobby Darin
EXTT4=Everly Brothers
EXTT5=Johnny Tillotson
EXTT6=Carl Perkins
EXTT7=Connie Francis
EXTT8=Ricky Nelson
EXTT9=Brenda Lee
EXTT10=Bobby Darin
EXTT11=Everly Brothers
EXTT12=Johnny Tillotson
EXTT13=Carl Perkins
PLAYORDER=
